<svg xmlns="http://www.w3.org/2000/svg" version="1.1" xmlns:xlink="http://www.w3.org/1999/xlink" xmlns:svgjs="http://svgjs.com/svgjs" width="512" height="512" x="0" y="0" viewBox="0 0 512 512" style="enable-background:new 0 0 512 512" xml:space="preserve" class=""><g><g xmlns="http://www.w3.org/2000/svg"><g><g><g><path d="m131.12 394.88c0 15.06-12.16 27.27-27.16 27.27s-15-54.54 0-54.54 27.16 12.21 27.16 27.27z" fill="#f9c8a6" data-original="#f9c8a6"></path></g></g></g><g><g><g><g><path d="m163.1 237.11 37.71 3.87 17.72 30.31-56.13 29.71c-13.75-22.12.7-63.89.7-63.89z" fill="#955c48" data-original="#955c48"></path></g></g></g></g><g><g><g><path d="m162.4 306.4c-1.8 0-3.57-.9-4.59-2.55-14.93-24.03-.44-66.7.19-68.5.97-2.82 4.02-4.3 6.86-3.34 2.82.97 4.31 4.05 3.34 6.86-.13.39-13.44 39.62-1.22 59.28 1.57 2.53.8 5.86-1.73 7.43-.89.56-1.87.82-2.85.82z" fill="#3e1133" data-original="#3e1133" class=""></path></g></g></g><g><g><g><g><path d="m357.34 237.11-37.71 3.87-17.72 30.31 56.13 29.71c13.75-22.12-.7-63.89-.7-63.89z" fill="#955c48" data-original="#955c48"></path></g></g></g></g><g><g><g><path d="m155.96 111.6c-4.21 19.85-3.91 47.83-4.03 75.05l36.03-15.15 36.03-69.62-24.48-45.78c.01.01-35.12 15.79-43.55 55.5z" fill="#955c48" data-original="#955c48"></path></g></g></g><path d="m173.88 174.98c-18.13 2.59-30.73 19.39-28.14 37.52s19.39 30.73 37.52 28.14z" fill="#f9c8a6" data-original="#f9c8a6"></path><path d="m346.57 174.98-9.38 65.66c18.13 2.59 34.93-10.01 37.52-28.14s-10.01-34.93-28.14-37.52z" fill="#e99980" data-original="#e99980"></path><g><g><g><path d="m305.37 269.86c45.16 18.93 77.09 65.43 77.09 119.79 0 71.17-54.72 82.27-122.23 82.27s-122.23-11.09-122.23-82.26c0-53.38 30.78-99.18 74.65-118.74" fill="#f9c8a6" data-original="#f9c8a6"></path></g></g></g><g><g><g><path d="m255.02 320.83s-37.46-9.9-48-10.83c-10.54-.94 42.53 153.34 42.53 153.34z" fill="#ffffff" data-original="#ffffff"></path></g></g></g><g><g><g><path d="m189.8 280.48s-31.06 20.69-44.4 76.55c-13.33 55.87 17.11 102.34 47.09 107.8 29.98 5.45 65.48 8.62 62.52-2.05-2.95-10.66-53.11-178.32-65.21-182.3z" fill="#645f78" data-original="#645f78"></path></g></g></g><g><g><g><path d="m305.37 269.86-47.13.54v201.51c.66 0 1.32.01 1.99.01 67.51 0 122.23-11.09 122.23-82.27-.01-54.36-31.93-100.86-77.09-119.79z" fill="#e99980" data-original="#e99980"></path></g></g></g><g><g><g><path d="m255.02 320.83s45.15-5.47 55.7-6.4c10.54-.94-50.23 148.91-50.23 148.91z" fill="#c8b5d2" data-original="#c8b5d2"></path></g></g></g><g><g><g><path d="m329.16 280.48s31.06 20.69 44.4 76.55-10.64 104.07-40.62 109.53c-29.98 5.45-83.12 13.8-80.16 3.14s64.28-185.24 76.38-189.22z" fill="#56516d" data-original="#56516d"></path></g></g></g><g><g><g><g><path d="m192.5 303.04s6.96 9.12 44.47 11.39l-24.32-43.51-12.96 6.77z" fill="#ffffff" data-original="#ffffff"></path></g></g></g><g><g><g><path d="m320.44 276.53-15.16-3.36-21.8 41.26c37.51-2.27 44.47-11.39 44.47-11.39z" fill="#c8b5d2" data-original="#c8b5d2"></path></g></g></g></g><g><g><g><path d="m216.57 277.5c0 24.11 19.54 43.65 43.65 43.65s43.65-19.54 43.65-43.65z" fill="#e99980" data-original="#e99980"></path></g></g></g><path d="m323.38 109.72-105.34-7.83c-25.32 0-41.18 20.53-41.18 45.86v55.26c0 46.04 37.33 83.37 83.37 83.37s83.37-37.33 83.37-83.37v-55.26c0-15.83-8.02-29.79-20.22-38.03z" fill="#f9c8a6" data-original="#f9c8a6"></path><g><g><g><path d="m323.38 109.72-63.16-4.7v181.36c46.04 0 83.37-37.33 83.37-83.37v-55.26c.01-15.83-8.01-29.79-20.21-38.03z" fill="#e99980" data-original="#e99980"></path></g></g></g><g><g><g><path d="m338.99 56.11c-35.36-29.93-136.67-51.98-139.95 4.38 0 0-2.93 19.33 7.44 41.16 7.88 16.58 23.42 34.61 53.74 46.72 67.42 26.93 81.15 16.3 81.15 16.3l22.27 18.14c.01.01 21.92-87.29-24.65-126.7z" fill="#b6805a" data-original="#b6805a"></path></g></g></g><g><g><g><path d="m313.5 77.15c-24.07-20.37-78.65-37.06-112.12-27.9-1.26 3.35-2.1 7.05-2.35 11.24 0 0-2.93 19.33 7.44 41.16 7.88 16.58 23.42 34.61 53.74 46.72 67.42 26.93 81.15 16.3 81.15 16.3l1.74 1.42c1.22-28.53-3.08-66.5-29.6-88.94z" fill="#955c48" data-original="#955c48"></path></g></g></g><g><g><g><path d="m260.23 291.78c-48.95 0-88.77-39.82-88.77-88.77v-55.26c0-24.89 13.62-44.45 34.71-49.81 2.89-.73 5.83 1.01 6.56 3.9.74 2.89-1.01 5.83-3.9 6.56-16.15 4.11-26.58 19.56-26.58 39.35v55.26c0 43 34.98 77.97 77.97 77.97s77.98-34.98 77.98-77.97v-55.26c0-11.13 0-34.28-10.51-41.38-2.47-1.67-3.12-5.03-1.45-7.49 1.67-2.48 5.03-3.12 7.49-1.45 15.27 10.31 15.27 36.35 15.27 50.33v55.26c-.01 48.94-39.83 88.76-88.77 88.76z" fill="#3e1133" data-original="#3e1133" class=""></path></g></g></g><g><g><g><path d="m178.49 246.37c-8.29 0-16.31-2.66-23.06-7.72-8.24-6.18-13.58-15.2-15.04-25.4-1.45-10.2 1.15-20.35 7.32-28.59 6.18-8.24 15.2-13.58 25.4-15.03 2.89-.43 5.68 1.63 6.11 4.58s-1.63 5.68-4.58 6.11c-7.34 1.05-13.83 4.89-18.29 10.82-4.45 5.93-6.32 13.24-5.27 20.58 2.17 15.15 16.27 25.73 31.41 23.56 2.89-.44 5.68 1.63 6.11 4.58s-1.63 5.68-4.58 6.11c-1.85.27-3.7.4-5.53.4z" fill="#3e1133" data-original="#3e1133" class=""></path></g></g></g><g><g><g><path d="m341.96 246.37c-1.83 0-3.68-.13-5.53-.4-2.95-.42-5-3.15-4.58-6.11s3.21-5.02 6.11-4.58c15.13 2.19 29.24-8.4 31.41-23.56 1.05-7.34-.83-14.65-5.27-20.58-4.45-5.93-10.95-9.77-18.29-10.82-2.95-.42-5-3.15-4.58-6.11.42-2.95 3.19-5.02 6.11-4.58 10.2 1.45 19.21 6.79 25.4 15.03 6.18 8.24 8.78 18.39 7.32 28.59-1.45 10.2-6.79 19.21-15.03 25.4-6.76 5.06-14.79 7.72-23.07 7.72z" fill="#3e1133" data-original="#3e1133" class=""></path></g></g></g><g><g><g><path d="m260.23 477.32c-66.29 0-127.63-10.62-127.63-87.66 0-54.85 28.9-101.81 75.43-122.56 2.72-1.22 5.92 0 7.13 2.73 1.21 2.72-.01 5.91-2.73 7.13-42.58 18.99-69.03 62.17-69.03 112.7 0 64.01 44.7 76.87 116.83 76.87s116.83-12.86 116.83-76.87c0-52.72-26.6-96.62-69.42-114.58-2.75-1.15-4.04-4.31-2.89-7.06 1.15-2.74 4.3-4.05 7.06-2.89 46.9 19.67 76.04 67.38 76.04 124.53 0 77.04-61.34 87.66-127.62 87.66z" fill="#3e1133" data-original="#3e1133" class=""></path></g></g></g><g><g><g><path d="m251.94 477.32c-.64 0-1.29-.11-1.91-.35-2.79-1.06-4.19-4.18-3.13-6.96l61.49-161.92c1.06-2.79 4.18-4.18 6.96-3.13 2.79 1.06 4.19 4.18 3.13 6.96l-61.49 161.92c-.83 2.15-2.88 3.48-5.05 3.48z" fill="#3e1133" data-original="#3e1133" class=""></path></g></g></g><g><g><g><path d="m256.32 465.77c-2.27 0-4.38-1.44-5.13-3.71l-49.3-150.38c-.93-2.83.61-5.88 3.44-6.81 2.85-.94 5.88.62 6.81 3.44l49.3 150.38c.93 2.83-.61 5.88-3.44 6.81-.56.18-1.12.27-1.68.27z" fill="#3e1133" data-original="#3e1133" class=""></path></g></g></g><g><g><g><path d="m231.33 190.36c-1.86 0-3.68-.97-4.68-2.7-3.33-5.77-6.05-7.82-7.48-7.82s-4.14 2.05-7.48 7.82c-1.49 2.58-4.79 3.47-7.37 1.97-2.58-1.49-3.47-4.79-1.97-7.37 5.14-8.9 10.64-13.22 16.82-13.22 6.18 0 11.68 4.32 16.82 13.22 1.49 2.58.61 5.88-1.97 7.37-.85.5-1.78.73-2.69.73z" fill="#3e1133" data-original="#3e1133" class=""></path></g></g></g><g><g><g><path d="m313.43 190.36c-1.86 0-3.68-.97-4.68-2.7-3.33-5.77-6.05-7.82-7.48-7.82s-4.14 2.05-7.48 7.82c-1.49 2.58-4.8 3.47-7.37 1.97-2.58-1.49-3.47-4.79-1.97-7.37 5.14-8.9 10.64-13.22 16.82-13.22 6.18 0 11.68 4.32 16.82 13.22 1.49 2.58.61 5.88-1.97 7.37-.84.5-1.77.73-2.69.73z" fill="#3e1133" data-original="#3e1133" class=""></path></g></g></g><g><g><g><path d="m363.65 188.22c-.43 0-.87-.05-1.32-.16-2.89-.72-4.65-3.65-3.93-6.54.21-.84 20.53-84.53-22.9-121.28-25.35-21.45-83.8-37.38-113.33-24.73-11.23 4.82-17.04 13.1-17.75 25.3-.01.17-.03.33-.05.5-.03.16-2.5 18.09 6.98 38.04 9.22 19.41 26.34 34.22 50.87 44.02 59.5 23.77 75.26 17.24 76.17 16.82 2.34-1.56 5.51-1.06 7.25 1.19 1.83 2.36 1.39 5.75-.97 7.57-2.69 2.09-19.56 11.16-86.46-15.55-27.14-10.84-46.19-27.47-56.61-49.42-10.41-21.9-8.29-41.38-7.94-44.02 1.01-16.12 9.39-28 24.25-34.38 33.37-14.31 96.38 2.56 124.56 26.41 48.57 41.11 27.33 128.45 26.4 132.14-.6 2.45-2.8 4.09-5.22 4.09z" fill="#3e1133" data-original="#3e1133" class=""></path></g></g></g><g><g><g><path d="" style="stroke:#1a213c;stroke-width:2.5;stroke-linecap:round;stroke-linejoin:round;stroke-miterlimit:10" data-original="#000000"></path></g></g></g><g><g><g><path d="m358.04 306.4c-.97 0-1.96-.26-2.84-.81-2.53-1.57-3.31-4.9-1.74-7.43 12.21-19.67-1.09-58.89-1.22-59.28-.97-2.82.52-5.89 3.34-6.86 2.84-.96 5.89.52 6.86 3.34.62 1.8 15.11 44.47.19 68.5-1.02 1.64-2.79 2.54-4.59 2.54z" fill="#3e1133" data-original="#3e1133" class=""></path></g></g></g><g><g><g><path d="m151.94 192.05c-.01 0-.02 0-.02 0-2.98-.01-5.39-2.44-5.38-5.42l.02-6.86c.08-24.86.15-50.56 4.12-69.29 8.88-41.91 45.09-58.6 46.63-59.3 2.72-1.22 5.91 0 7.13 2.72s.01 5.91-2.71 7.13c-.53.24-32.8 15.39-40.5 51.69-3.74 17.64-3.82 42.78-3.89 67.08l-.02 6.87c0 2.98-2.41 5.38-5.38 5.38z" fill="#3e1133" data-original="#3e1133" class=""></path></g></g></g><g><g><g><path d="m285.78 234.97c-5.29-1.87-45.83-1.87-51.11 0-5.29 1.87 9.49 10.28 25.56 12.35 16.06-2.07 30.84-10.48 25.55-12.35z" fill="#e62b5b" data-original="#e62b5b"></path></g></g></g><g><g><g><path d="m392.95 270.41-2.66-1.26-2.55 1.49.37-2.93-2.2-1.96 2.9-.55 1.18-2.7 1.42 2.58 2.94.3-2.02 2.15z" fill="#ffffff" data-original="#ffffff"></path></g></g></g><g><g><g><path d="m397.17 258.21-2.67-1.26-2.54 1.49.37-2.93-2.2-1.96 2.89-.55 1.19-2.7 1.42 2.58 2.93.3-2.01 2.15z" fill="#ffffff" data-original="#ffffff"></path></g></g></g><g><g><g><path d="m377.7 358.73c-.28 0-.57-.02-.85-.07-2.94-.46-4.95-3.23-4.49-6.17l29.91-189.34c.46-2.95 3.23-4.97 6.17-4.49 2.94.46 4.95 3.23 4.49 6.17l-29.91 189.34c-.42 2.67-2.71 4.56-5.32 4.56z" fill="#3e1133" data-original="#3e1133" class=""></path></g></g></g><g><g><g><path d="m399.48 389.52c-1.95 20.02-7.45 35.87-27.47 33.91-20.02-1.95-34.66-19.77-32.71-39.79s19.77-34.66 39.79-32.71 22.35 18.57 20.39 38.59z" fill="#e99980" data-original="#e99980"></path></g></g></g><g><g><g><path d="m375.27 428.99c-1.22 0-2.48-.06-3.78-.19-22.95-2.24-39.79-22.74-37.56-45.68 1.09-11.12 6.43-21.15 15.07-28.24 8.63-7.09 19.52-10.4 30.62-9.31 11.33 1.1 19.03 6.43 22.9 15.84 2.83 6.88 3.57 15.98 2.33 28.64-1.24 12.67-3.72 21.45-7.83 27.65-4.97 7.5-12.27 11.29-21.75 11.29zm.26-72.83c-15.76 0-29.29 12-30.85 28.01-1.66 17.02 10.84 32.22 27.86 33.89 7.34.73 12.11-1.24 15.48-6.32 3.09-4.67 5.03-11.89 6.08-22.74 1.06-10.84.56-18.31-1.57-23.49-2.32-5.65-6.63-8.48-13.96-9.2-1.02-.1-2.03-.15-3.04-.15z" fill="#3e1133" data-original="#3e1133" class=""></path></g></g></g><g><g><g><path d="m120.96 389.52c1.95 20.02 7.45 35.87 27.47 33.91s34.66-19.77 32.71-39.79-19.77-34.66-39.79-32.71-22.34 18.57-20.39 38.59z" fill="#f9c8a6" data-original="#f9c8a6"></path></g></g></g><g><g><g><path d="m208.25 341.68s-65.96-25.62-91.74 3.25v24.81s23.66 16.85 13.17 33.84-13.17 18.56-13.17 18.56v29.34s52.94-15.05 90.85 0c0 0 57.93-18.71 87.77 0v-108.98s-36.86-26.44-86.88-.82z" fill="#ffcd01" data-original="#ffcd01"></path></g></g></g><g><g><g><path d="m208.25 341.68s-.32-.12-.9-.33v110.14s57.93-18.71 87.77 0v-108.99c.01 0-36.85-26.44-86.87-.82z" fill="#f49a1a" data-original="#f49a1a"></path></g></g></g><g><g><g><path d="m92.72 394.88h35.09s-12.06 32.68-27.84 27.27-7.25-27.27-7.25-27.27z" fill="#e99980" data-original="#e99980"></path></g></g></g><g><g><g><path d="m207.36 456.88c-.48 0-.95-.06-1.42-.19-34.16-9.3-63.59-9.36-87.49-.17-1.66.64-3.52.42-5-.59-1.46-1.01-2.34-2.67-2.34-4.45v-32.42c0-2.98 2.42-5.4 5.4-5.4s5.4 2.42 5.4 5.4v24.87c22.92-6.93 49.78-6.74 80.05.59v-99.36c-29.04-12.78-55.29-12.86-80.05-.23v24.93c0 2.98-2.42 5.4-5.4 5.4s-5.4-2.42-5.4-5.4v-28.16c0-1.96 1.07-3.78 2.79-4.73 29.69-16.36 61.01-16.42 95.74-.16 1.9.89 3.11 2.79 3.11 4.89v109.79c0 1.68-.78 3.27-2.12 4.29-.95.72-2.1 1.1-3.27 1.1z" fill="#3e1133" data-original="#3e1133" class=""></path></g></g></g><g><g><g><path d="m207.36 456.88c-1.17 0-2.32-.38-3.28-1.11-1.34-1.02-2.12-2.61-2.12-4.29v-109.78c0-2.1 1.21-4 3.11-4.89 34.74-16.26 66.06-16.2 95.74.16 1.72.95 2.79 2.76 2.79 4.73v109.79c0 1.78-.88 3.44-2.34 4.45-1.47 1.01-3.34 1.23-5 .59-23.89-9.2-53.33-9.13-87.49.17-.46.12-.94.18-1.41.18zm5.39-111.71v99.36c30.28-7.33 57.14-7.52 80.05-.59v-98.99c-24.76-12.64-51.01-12.56-80.05.22z" fill="#3e1133" data-original="#3e1133" class=""></path></g></g></g><g><g><g><path d="m260.23 326.55c-27.04 0-49.05-22.01-49.05-49.05 0-2.98 2.42-5.4 5.4-5.4s5.4 2.42 5.4 5.4c0 21.09 17.16 38.26 38.26 38.26 21.09 0 38.26-17.16 38.26-38.26 0-2.98 2.42-5.4 5.4-5.4s5.4 2.42 5.4 5.4c-.02 27.04-22.03 49.05-49.07 49.05z" fill="#3e1133" data-original="#3e1133" class=""></path></g></g></g><g><g><g><path d="m236.97 319.82c-.11 0-.22 0-.33-.01-38.05-2.3-47.03-11.65-48.44-13.51-1.03-1.35-1.36-3.11-.9-4.74l7.19-25.36c.81-2.87 3.79-4.56 6.66-3.72 2.87.81 4.53 3.79 3.72 6.66l-6.2 21.87c3.85 2.18 14.38 6.56 38.61 8.02 2.98.18 5.24 2.74 5.06 5.71-.16 2.88-2.53 5.08-5.37 5.08z" fill="#3e1133" data-original="#3e1133" class=""></path></g></g></g><g><g><g><path d="m283.48 319.82c-2.83 0-5.21-2.21-5.38-5.07-.18-2.97 2.09-5.53 5.06-5.71 24.05-1.45 34.6-5.78 38.6-8.06l-6.51-22.97c-.81-2.87.85-5.85 3.72-6.66 2.84-.83 5.85.84 6.66 3.72l7.52 26.5c.46 1.64.13 3.39-.9 4.75-1.41 1.85-10.39 11.2-48.43 13.5-.12 0-.23 0-.34 0z" fill="#3e1133" data-original="#3e1133" class=""></path></g></g></g><g><g><g><path d="m103.96 427.55c-12.29 0-16.65-17.6-16.65-32.67 0-7.76 1.12-15.08 3.14-20.61 3.85-10.49 10.12-12.06 13.51-12.06 17.95 0 32.56 14.66 32.56 32.67s-14.61 32.67-32.56 32.67zm0-54.55c-.5 0-1.99 1.22-3.37 4.98-1.58 4.3-2.48 10.46-2.48 16.89 0 14.43 4.1 21.87 5.85 21.87 12 0 21.76-9.81 21.76-21.87.01-12.06-9.76-21.87-21.76-21.87z" fill="#3e1133" data-original="#3e1133" class=""></path></g></g></g><g><g><g><path d="m214.05 222.29c-23.49 0-42.59-19.1-42.59-42.59s19.1-42.59 42.59-42.59 42.59 19.1 42.59 42.59-19.11 42.59-42.59 42.59zm0-74.38c-17.53 0-31.8 14.26-31.8 31.8s14.26 31.8 31.8 31.8 31.8-14.26 31.8-31.8-14.27-31.8-31.8-31.8z" fill="#3e1133" data-original="#3e1133" class=""></path></g></g></g><g><g><g><path d="m306.4 222.29c-23.49 0-42.59-19.1-42.59-42.59s19.11-42.59 42.59-42.59 42.59 19.1 42.59 42.59-19.1 42.59-42.59 42.59zm0-74.38c-17.54 0-31.8 14.26-31.8 31.8s14.26 31.8 31.8 31.8c17.53 0 31.8-14.26 31.8-31.8s-14.26-31.8-31.8-31.8z" fill="#3e1133" data-original="#3e1133" class=""></path></g></g></g><g><g><g><path d="m269.21 185.1h-17.97c-2.98 0-5.4-2.42-5.4-5.4s2.42-5.4 5.4-5.4h17.97c2.98 0 5.4 2.42 5.4 5.4-.01 2.98-2.42 5.4-5.4 5.4z" fill="#3e1133" data-original="#3e1133" class=""></path></g></g></g><g><g><g><path d="" style="stroke:#3e1133;stroke-width:2.5;stroke-linecap:round;stroke-linejoin:round;stroke-miterlimit:10" data-original="#000000"></path></g></g></g><g><g><g><path d="" style="stroke:#3e1133;stroke-width:2.5;stroke-linecap:round;stroke-linejoin:round;stroke-miterlimit:10" data-original="#000000"></path></g></g></g><g><g><g><path d="" style="stroke:#3e1133;stroke-width:2.5;stroke-linecap:round;stroke-linejoin:round;stroke-miterlimit:10" data-original="#000000"></path></g></g></g></g></g></svg>