<svg xmlns="http://www.w3.org/2000/svg" version="1.1" xmlns:xlink="http://www.w3.org/1999/xlink" xmlns:svgjs="http://svgjs.com/svgjs" width="512" height="512" x="0" y="0" viewBox="0 0 53 53" style="enable-background:new 0 0 512 512" xml:space="preserve" class=""><g><g xmlns="http://www.w3.org/2000/svg" id="_x37_5"><g><path d="m50.5 17.3684006v21.0224342c0 2.4439163-1.9811859 4.4251022-4.4251022 4.4251022h-20.1473809l-8.0556679 5.9720421c-.4772511.3538094-1.1538925.013134-1.1538925-.5809631v-5.391079h-2.2003174c-2.4439154 0-4.4251003-1.9811859-4.4251003-4.4251022v-21.0224342c0-2.4439163 1.981185-4.4251013 5.6478882-4.4251013h31.5572605c1.2211266 0 3.2023125 1.981185 3.2023125 4.4251013z" fill="#5e5eef" data-original="#5e5eef" class=""></path></g><g opacity=".3"><g><path d="m33.0787277 15.8679523h-.7653999c-.4403419 0-.7975979-.3572569-.7975979-.7975969s.3572559-.7975979.7975979-.7975979h.7653999c.4403419 0 .7975998.3572578.7975998.7975979s-.3572578.7975969-.7975998.7975969z" fill="#ffffff" data-original="#ffffff" class=""></path></g><g><path d="m43.7301025 15.8679523h-7.2802811c-.4403381 0-.797596-.3572569-.797596-.7975969s.3572578-.7975979.797596-.7975979h7.2802811c.4403381 0 .797596.3572578.797596.7975979s-.3572578.7975969-.797596.7975969z" fill="#ffffff" data-original="#ffffff" class=""></path></g></g><g opacity=".3"><g><path d="m12.2752857 35.660408c-.44034 0-.7975969-.3572578-.7975969-.797596v-4.8968868c0-.44034.3572569-.7975979.7975969-.7975979s.7975969.3572578.7975969.7975979v4.8968868c.0000001.4403382-.3572568.797596-.7975969.797596z" fill="#ffffff" data-original="#ffffff" class=""></path></g><g><path d="m12.2752857 27.6229839c-.44034 0-.7975969-.3572578-.7975969-.7975979v-.829792c0-.44034.3572569-.7975979.7975969-.7975979s.7975969.3572578.7975969.7975979v.829792c.0000001.4403401-.3572568.7975979-.7975969.7975979z" fill="#ffffff" data-original="#ffffff" class=""></path></g></g><g><path d="m50.5 17.367342v21.024683c0 2.4432564-1.9806519 4.423912-4.423912 4.423912h-20.148571l-8.0504227 5.9767838c-.4785061.3508949-1.1591377.0106468-1.1591377-.5849571v-1.4462929l7.0151825-5.2058144c.2371922-.1760139.5247211-.2710457.8200855-.2710457h19.6936092c2.4433289 0 4.4240417-1.9807091 4.4240417-4.4240417v-21.0245514c0-.9253378-.2871552-1.7866755-.7763062-2.4992418 1.5419694.6912765 2.6054307 2.2333755 2.6054307 4.0305662z" fill="#4242e5" data-original="#4242e5"></path></g><g><path d="m14.3461304 35.8789825v-15.9986c0-1.4818363 1.2012653-2.6831017 3.9058895-2.6831017h25.5343342c1.206974.0372543 2.4603119 1.2012653 2.4603119 2.6831017v15.9986c0 1.4818344-1.2012634 2.6831017-2.6830978 2.6831017h-26.5343362c-1.4818363 0-2.6831016-1.2012672-2.6831016-2.6831017z" fill="#ffffff" data-original="#ffffff" class=""></path></g><g><path d="m46.246048 19.8825474v15.994524c0 1.4887428-1.2017212 2.6799469-2.6799507 2.6799469h-26.5399266c-1.2016544 0-2.211957-.77631-2.5629177-1.8717079.1595449.0319366.3296709.0424538.4998617.0424538h26.5292168c1.4782295 0 2.6799469-1.2017212 2.6799469-2.690464v-15.994524c0-.2765102-.0425797-.5530205-.1169624-.8082409 1.2442331.2339305 2.190732 1.3293285 2.190732 2.6480121z" fill="#e4e3ff" data-original="#e4e3ff"></path></g><g><path d="m37.1866951 27.1044655c0 3.8007622-3.0838394 6.8847389-6.8959923 6.8847389-3.8007622 0-6.8846016-3.0839767-6.8846016-6.8847389 0-3.8121548 3.0838394-6.8959942 6.8846016-6.8959942 3.8121529 0 6.8959923 3.0838394 6.8959923 6.8959942z" fill="#5bc658" data-original="#5bc658"></path></g><g opacity=".3"><g><path d="m25.1996307 27.3428993c-.004776 0-.0107479 0-.0155239 0-.2364368-.008358-.4203339-.2065849-.411974-.4430218.0620937-1.7064114.8872375-3.2623615 2.2604866-4.2690125.189867-.1409073.4585457-.1003075.598259.0919476.1397133.191061.0979176.4585457-.0919495.598259-1.1618862.8514137-1.8580647 2.167345-1.9118004 3.6098537-.0083579.2304669-.1982249.411974-.4274978.411974z" fill="#ffffff" data-original="#ffffff" class=""></path></g></g><g opacity=".3"><g><path d="m28.7963486 22.1962032c-.0489597-.2304688.0991116-.4573517.3307724-.5075054.3367443-.0716476.6842365-.1122494 1.0329227-.1206074.2280788.0477657.4322739.1803131.4382458.4167519.00597.2364368-.1803131.4322739-.4167519.4382439-.2949505.0083599-.5910931.0429897-.8776855.1038895-.2325802.0465164-.4582653-.0996266-.5075035-.3307725z" fill="#ffffff" data-original="#ffffff" class=""></path></g></g><g><path d="m37.1866951 27.1044655c0 3.8007622-3.0838394 6.8847389-6.8959923 6.8847389-2.3099613 0-4.3583527-1.149353-5.6102257-2.9018631 1.1721363.9218178 2.6515465 1.4794083 4.2559757 1.4794083 3.8122921 0 6.8961315-3.0839787 6.8961315-6.8847408 0-1.4906616-.4778557-2.8675537-1.2745132-3.9941273 1.6045685 1.2629852 2.628624 3.2202511 2.628624 5.416584z" fill="#49a247" data-original="#49a247"></path></g><g><path d="m33.0988426 28.0512009-3.0188141 2.1269016c-.7717743.5437508-1.8359013-.0082359-1.8359013-.952322v-4.2538834c0-.9440956 1.064146-1.4960785 1.8359184-.9523087l3.018816 2.1269836c.6586343.464058.6586267 1.4405824-.000019 1.9046289z" fill="#ffffff" data-original="#ffffff" class=""></path></g><g><path d="m33.091671 28.0475616-3.0036621 2.1304131c-.715929.5062771-1.6938419.069706-1.8335762-.7509956.3667583.1922779.8208084.2097588 1.2049408-.069706l3.0210342-2.1306267c.4017143-.2792511.5588226-.750782.4715309-1.1698723l.1397324.0873985c.6635933.471531.6635933 1.449339 0 1.903389z" fill="#e4e3ff" data-original="#e4e3ff"></path></g><g><path d="m23.8688126 5.3459826 2.8015213 6.6175165c.3573227.8440399.1048355 1.8123417-.6125259 2.3828468-1.6274757 1.294301-4.1048965 3.7158318-5.3175545 5.4894123-.5434647.7948456-1.5177841 1.2067738-2.4666672 1.0431976-2.1146507-.3645382-5.5710049-.2732582-7.6304455-.0066509-.9087601.1176453-1.7794628-.3749733-2.1366987-1.2188148l-2.8016276-6.6178312z" fill="#474646" data-original="#474646" class=""></path></g><g><path d="m23.868536 5.3504038 2.7985973 6.6106453c.3606777.8519678.1057358 1.8118076-.6072006 2.3806257-1.6248722 1.2982559-4.108139 3.7230301-5.3169346 5.4936981-.5433064.789463-1.5245438 1.2048683-2.4694157 1.0454216-2.1127186-.3645153-5.5713711-.2737961-7.6344967-.0107479-.5338535.0608387-1.0606937-.0722256-1.4713364-.381464.2533321.0579205.5299072.0805416.8100348.0510521 2.0585556-.27384 5.5217781-.3537674 7.6344976.0107479.9404316.1485977 1.921669-.2668076 2.4694157-1.0454197 1.2087955-1.770668 3.6874924-4.2062368 5.3169346-5.4936991.7129364-.5688171.9678764-1.5286579.6071987-2.3806248l-2.5794716-6.0930419z" fill="#2d2c2c" data-original="#2d2c2c" class=""></path></g><g><path d="m24.775404 7.4830055.2802429.6619682-7.7822666 5.9473734c-.2013092.1584005-.444418.2613201-.698204.2955828l-9.6818714 1.4460192-.2802424-.6619682 9.6818714-1.4460201c.2516098-.0394077.4947186-.1423273.698204-.2955828z" fill="#2d2c2c" data-original="#2d2c2c" class=""></path></g><g opacity=".2"><path d="m10.5947723 19.8314457c-.2141323.0906525-.4614115-.009531-.5520639-.2236633l-.3664436-.8655872c-.0906525-.2141323.0095291-.4614105.2236624-.552063s.4614115.0095291.5520639.2236614l.3664436.8655872c.0906525.2141323-.0095291.4614124-.2236624.5520649z" fill="#ffffff" data-original="#ffffff" class=""></path></g><g opacity=".2"><g><path d="m9.6865749 17.6861649c-.2141333.0906525-.4614115-.0095291-.5520639-.2236614l-.1322374-.3123608c-.0906525-.2141342.0095291-.4614124.2236624-.5520649.2141323-.0906525.4614115.0095291.5520639.2236633l.1322374.3123608c.0906525.2141323-.0095301.4614105-.2236624.552063z" fill="#ffffff" data-original="#ffffff" class=""></path></g></g><g><path d="m27.3534317 4.3020301.2960453.6992931-.0067959.0028768c.0439587.1414666.0074482.3010712-.1275234.3982306l-10.5185795 8.0395984c-.1981335.1559534-.4426136.2594528-.6992931.2960434l-13.0801947 1.9508753c-.1869705.0311203-.3355947-.0741005-.4027534-.2138081-.0028594-.0067549-.0028594-.0067549-.0057364-.0135498l-.2759225-.6517649c.0603628.1425848.2089696.2477636.4056127.220562l13.0802126-1.9508333c.2537861-.0434275.4982643-.1469269.6992931-.2960434l10.5185604-8.0396395c.1496065-.1193819.1774386-.2992553.1170748-.4418406z" fill="#1b1b1b" data-original="#1b1b1b"></path></g><g><path d="m27.2355099 4.7443628-10.5160866 8.0356197c-.2049084.1565762-.4461441.2586851-.7011948.2967987l-13.0830245 1.9550334c-.3863523.0577335-.5957687-.4370184-.2853727-.674201l10.510704-8.0315323c.2048073-.1564994.4459095-.2585874.7008257-.2967439l13.088685-1.9591627c.3863874-.0578356.5959001.436976.2854639.6741881z" fill="#474646" data-original="#474646" class=""></path></g><g><path d="m4.3502603 19.7450161-1.7373044-4.1054688c-.2900391-.6855469.03125-1.4804688.7167969-1.7714844l11.6357422-4.9257813c.1289063-.0537109.2734375.0068359.328125.1328125.0537109.1269531-.0058594.2744141-.1328125.328125l-11.6357423 4.9257814c-.4316406.1826172-.6347656.6835938-.4511719 1.1152344l1.7373044 4.1054688c.0537109.1269531-.0058594.2744141-.1328125.328125-.1235327.0524081-.27183-.0027982-.3281249-.1328126z" fill="#f9b938" data-original="#f9b938" class=""></path></g><g><path d="m5.253675 24.1982327 2.0014353-.8473015c.2533989-.107275.338851-.4239902.1717114-.6459408l-1.6202812-2.1131859c.0614052-.2150822.0461855-.4525509-.0457635-.6697445-.2255087-.5326805-.8437953-.7831726-1.3764129-.5576897-.5275042.2233162-.7780592.841629-.5525503 1.3743114.0919487.2171936.2519231.3933811.4490933.4989948l.3894591 2.6342506c.0430919.2744676.3299099.4335825.5833088.3263056z" fill="#f9b938" data-original="#f9b938" class=""></path></g><g><path d="m5.253675 24.1982327.4085698-.172966c-.2533994.107275-.5402803-.0518112-.5833092-.3263054l-.3484936-2.356762c-.0221796-.1499958-.0906191-.2922516-.2065887-.3899307-.1208973-.1018295-.2189274-.2340965-.2834702-.3865547-.1948547-.4602719-.0332479-.9860649.3617349-1.2630463-.0759983.0077572-.1454086.0310745-.2177539.0617027-.5275042.2233162-.7780592.841629-.5525503 1.3743114.0919487.2171936.2519231.3933811.4490933.4989948l.3894591 2.6342506c.0430919.2744676.3299099.4335825.5833088.3263056z" fill="#ecb021" data-original="#ecb021" class=""></path></g><g><path d="m16.4616528 8.6261053c.1644001.3883343-.4364166 1.0115194-1.331562 1.3904762-.9056759.3834152-1.7714491.3811073-1.9358492-.0072279-.1644011-.3883343.4365482-1.0115747 1.3422241-1.39499.8951454-.3789577 1.760787-.3765935 1.9251871.0117417z" fill="#f9b938" data-original="#f9b938" class=""></path></g></g></g></svg>